<?xml version="1.0" standalone="no"?>
<!DOCTYPE svg PUBLIC "-//W3C//DTD SVG 20010904//EN"
 "http://www.w3.org/TR/2001/REC-SVG-20010904/DTD/svg10.dtd">
<svg version="1.0" xmlns="http://www.w3.org/2000/svg"
 width="225.000000pt" height="225.000000pt" viewBox="0 0 225.000000 225.000000"
 preserveAspectRatio="xMidYMid meet">
<metadata>
Created by potrace 1.11, written by Peter Selinger 2001-2013
</metadata>
<g transform="translate(0.000000,225.000000) scale(0.100000,-0.100000)"
fill="#000000" stroke="none">
<path d="M1390 2210 c-17 -17 -20 -33 -20 -113 0 -107 13 -137 60 -137 51 0
60 20 60 134 0 87 -3 105 -18 119 -25 23 -58 21 -82 -3z"/>
<path d="M1030 2110 c-11 -11 -20 -29 -20 -39 0 -23 76 -160 98 -178 37 -31
92 -4 92 44 0 25 -58 141 -88 176 -20 23 -57 22 -82 -3z"/>
<path d="M1756 2115 c-8 -8 -33 -49 -56 -91 -46 -83 -48 -116 -5 -136 35 -16
67 -3 89 34 68 121 78 146 65 170 -7 13 -17 26 -23 30 -18 13 -54 9 -70 -7z"/>
<path d="M1967 1814 c-89 -51 -109 -80 -84 -118 27 -40 51 -41 115 -6 123 69
147 105 102 150 -29 29 -46 25 -133 -26z"/>
<path d="M1345 1826 c-50 -12 -135 -52 -135 -62 0 -2 9 -22 20 -43 l19 -39 76
0 c65 0 85 -4 140 -31 110 -54 174 -152 183 -277 9 -142 -54 -258 -177 -321
l-63 -33 41 0 c60 0 161 37 217 79 186 140 219 408 73 592 -87 110 -261 170
-394 135z"/>
<path d="M1970 1470 c-24 -24 -25 -48 -4 -78 14 -20 23 -22 119 -22 96 0 105
2 119 22 21 30 20 54 -4 78 -17 17 -33 20 -115 20 -82 0 -98 -3 -115 -20z"/>
<path d="M1884 1165 c-27 -41 -6 -73 81 -122 41 -24 85 -43 98 -43 49 0 76 70
40 102 -40 34 -146 88 -173 88 -20 0 -35 -8 -46 -25z"/>
<path d="M1680 960 c-29 -29 -24 -56 28 -145 49 -84 75 -100 120 -76 35 19 33
49 -9 129 -58 111 -95 136 -139 92z"/>
<path d="M1390 880 c-17 -17 -20 -33 -20 -113 0 -107 13 -137 60 -137 51 0 60
20 60 134 0 87 -3 105 -18 119 -25 23 -58 21 -82 -3z"/>
<path d="M1064 737 c-100 -51 -197 -105 -217 -120 -76 -58 -110 -193 -71 -285
62 -148 261 -196 387 -91 69 57 87 116 107 352 15 192 14 237 -7 237 -10 -1
-100 -42 -199 -93z"/>
<path d="M395 617 c-138 -71 -165 -101 -165 -176 0 -85 56 -141 142 -141 48 0
98 26 122 62 26 40 52 308 31 314 -5 2 -64 -25 -130 -59z"/>
</g>
</svg>
